<svg width="8" height="3" viewBox="0 0 8 3" fill="none" xmlns="http://www.w3.org/2000/svg">
<path d="M1.647 0.29389C1.35645 0.270859 1.06525 0.330599 0.811522 0.465292C0.557791 0.599986 0.353346 0.803356 0.224946 1.04879C0.0965462 1.29422 0.050174 1.57027 0.0918988 1.84082C0.133624 2.11137 0.261501 2.3638 0.458795 2.56508C0.656088 2.76637 0.913605 2.90712 1.19764 2.96892C1.48168 3.03072 1.779 3.01069 2.05069 2.91144C2.32238 2.8122 2.55578 2.63837 2.72034 2.41271C2.88491 2.18705 2.97297 1.92006 2.973 1.6467C2.98078 1.47623 2.95264 1.30599 2.8902 1.14572C2.82775 0.985445 2.73223 0.838283 2.60908 0.712644C2.48593 0.587005 2.33757 0.485353 2.17249 0.413501C2.00741 0.341648 1.82884 0.301003 1.647 0.29389ZM6.392 0.29389C6.10145 0.270859 5.81025 0.330599 5.55652 0.465292C5.30279 0.599986 5.09835 0.803356 4.96995 1.04879C4.84155 1.29422 4.79518 1.57027 4.8369 1.84082C4.87862 2.11137 5.0065 2.3638 5.2038 2.56508C5.40109 2.76637 5.65861 2.90712 5.94264 2.96892C6.22668 3.03072 6.524 3.01069 6.79569 2.91144C7.06738 2.8122 7.30078 2.63837 7.46534 2.41271C7.62991 2.18705 7.71797 1.92006 7.718 1.6467C7.72578 1.47623 7.69764 1.30599 7.6352 1.14572C7.57275 0.985445 7.47723 0.838283 7.35408 0.712644C7.23093 0.587005 7.08257 0.485353 6.91749 0.413501C6.75241 0.341648 6.57384 0.301003 6.392 0.29389Z" fill="#858585"/>
</svg>
